<svg xmlns="http://www.w3.org/2000/svg" xmlns:xlink="http://www.w3.org/1999/xlink" width="1080" zoomAndPan="magnify" viewBox="0 0 810 809.999993" height="1080" preserveAspectRatio="xMidYMid meet" version="1.0"><path fill="#000000" d="M 78.898438 213.625 C 78.902344 181.71875 79.046875 150.554688 78.78125 119.390625 C 78.730469 113.191406 80.425781 110.160156 86.8125 108.550781 C 155.828125 91.15625 224.765625 73.460938 293.726562 55.867188 C 358.621094 39.308594 423.539062 22.84375 488.382812 6.097656 C 494.386719 4.542969 499.039062 5.160156 504.335938 8.421875 C 588.5625 60.300781 672.863281 112.058594 757.292969 163.601562 C 764.480469 167.988281 767.207031 172.988281 767.183594 181.503906 C 766.835938 312.589844 766.914062 443.679688 766.550781 574.765625 C 766.527344 583.101562 768.96875 587.945312 776.394531 591.617188 C 784.566406 595.660156 792.074219 601.027344 799.941406 605.695312 C 803.9375 608.066406 805.753906 611.261719 805.746094 616.015625 C 805.640625 664.984375 805.605469 713.957031 805.746094 762.929688 C 805.765625 768.855469 802.410156 770.382812 797.695312 771.550781 C 759.320312 781.058594 720.511719 789.191406 682.796875 800.863281 C 663.957031 806.695312 650.699219 801.65625 635.589844 792.304688 C 588.070312 762.886719 540.175781 734.078125 493.042969 704.042969 C 487.144531 700.289062 481.722656 699.457031 474.964844 701.226562 C 435.769531 711.484375 396.46875 721.34375 357.230469 731.453125 C 351.375 732.964844 346.375 732.300781 341.070312 729.039062 C 256.816406 677.203125 172.503906 625.46875 88.066406 573.9375 C 81.328125 569.824219 78.753906 565.074219 78.769531 557.171875 C 78.984375 442.902344 78.90625 328.636719 78.898438 213.625 M 578.53125 486.007812 C 578.53125 519.792969 578.53125 553.574219 578.53125 586.921875 C 581.453125 588.359375 583.347656 587.398438 585.195312 586.933594 C 622.3125 577.582031 659.386719 568.078125 696.542969 558.890625 C 702.46875 557.425781 704.324219 554.585938 704.289062 548.597656 C 704.070312 508.074219 704.195312 467.546875 704.167969 427.023438 C 704.167969 424.609375 704.660156 422.046875 702.660156 419.546875 C 701.726562 419.546875 700.484375 419.300781 699.371094 419.582031 C 660.839844 429.316406 622.324219 439.125 583.785156 448.84375 C 579.664062 449.882812 578.378906 452.289062 578.464844 456.351562 C 578.667969 465.738281 578.527344 475.132812 578.53125 486.007812 M 642.679688 209.4375 C 623.871094 213.972656 627.480469 212 627.394531 228.375 C 627.191406 266.214844 627.320312 304.0625 627.394531 341.90625 C 627.398438 344.746094 626.464844 347.851562 628.667969 350.363281 C 631.074219 351.371094 633.15625 350.125 635.230469 349.601562 C 671.433594 340.523438 707.574219 331.199219 743.835938 322.371094 C 750.570312 320.734375 753.109375 318.007812 753.054688 310.890625 C 752.738281 270.574219 752.90625 230.257812 752.847656 189.941406 C 752.847656 187.574219 753.625 184.988281 750.992188 182.011719 C 715.589844 190.988281 679.730469 200.078125 642.679688 209.4375 M 616.773438 244.058594 C 616.773438 235 616.773438 225.945312 616.773438 216.792969 C 615.402344 216.792969 614.636719 216.640625 613.957031 216.8125 C 574.96875 226.777344 536.003906 236.820312 496.992188 246.699219 C 492.140625 247.925781 490.96875 250.769531 490.980469 255.3125 C 491.085938 296.578125 491.109375 337.84375 490.988281 379.109375 C 490.972656 384.621094 492.652344 385.9375 498.070312 384.542969 C 535.601562 374.867188 573.179688 365.367188 610.792969 356.015625 C 615.535156 354.835938 616.984375 352.722656 616.949219 347.839844 C 616.707031 313.742188 616.792969 279.640625 616.773438 244.058594 M 731.539062 774.335938 C 748.777344 769.910156 765.945312 765.183594 783.285156 761.210938 C 789.917969 759.695312 792.011719 756.597656 791.976562 750.023438 C 791.757812 709.953125 791.890625 669.882812 791.835938 629.8125 C 791.832031 627.1875 792.445312 624.347656 790.261719 621.695312 C 788.988281 621.832031 787.511719 621.8125 786.125 622.160156 C 748.265625 631.699219 710.433594 641.351562 672.542969 650.757812 C 666.941406 652.148438 665.972656 655.4375 665.988281 660.46875 C 666.125 701.03125 666.066406 741.597656 666.117188 782.164062 C 666.121094 784.574219 665.539062 787.128906 667.851562 790.476562 C 688.386719 785.257812 709.367188 779.929688 731.539062 774.335938 M 355.425781 456.324219 C 355.425781 493.554688 355.425781 530.785156 355.425781 567.433594 C 358.714844 569.28125 360.890625 568.21875 362.945312 567.695312 C 399.546875 558.335938 436.09375 548.75 472.753906 539.617188 C 479.175781 538.019531 481.410156 535.402344 481.355469 528.644531 C 481.042969 488.613281 481.230469 448.578125 481.1875 408.542969 C 481.1875 405.910156 481.886719 403.09375 479.710938 400.164062 C 474.292969 400.355469 468.996094 402.445312 463.578125 403.804688 C 430.296875 412.15625 397.078125 420.773438 363.71875 428.808594 C 356.980469 430.429688 354.726562 433.5 355.304688 440.019531 C 355.742188 444.925781 355.40625 449.898438 355.425781 456.324219 M 402.828125 567.777344 C 389.652344 571.125 376.519531 574.664062 363.277344 577.726562 C 357.585938 579.046875 355.207031 581.4375 355.253906 587.75 C 355.542969 628.320312 355.375 668.894531 355.402344 709.464844 C 355.40625 711.851562 354.773438 714.445312 356.75 716.535156 C 359.253906 717.25 361.65625 716.496094 364.023438 715.898438 C 400.453125 706.695312 436.851562 697.359375 473.320312 688.320312 C 479.078125 686.894531 481.359375 684.433594 481.324219 678.238281 C 481.070312 637.417969 481.210938 596.597656 481.183594 555.777344 C 481.179688 553.609375 481.691406 551.300781 479.375 548.265625 C 454.585938 554.582031 429.296875 561.027344 402.828125 567.777344 M 409.601562 268.773438 C 394.53125 272.609375 379.535156 276.785156 364.359375 280.132812 C 357.5625 281.632812 355.175781 284.46875 355.238281 291.597656 C 355.574219 331.382812 355.371094 371.171875 355.425781 410.960938 C 355.429688 413.816406 354.601562 416.890625 356.871094 419.824219 C 358.671875 419.570312 360.636719 419.480469 362.503906 419.007812 C 399.601562 409.589844 436.65625 400.007812 473.808594 390.816406 C 479.441406 389.421875 481.320312 387.074219 481.292969 381.308594 C 481.082031 340.53125 481.210938 299.753906 481.167969 258.976562 C 481.164062 256.625 481.933594 253.992188 479.03125 251.332031 C 456.613281 256.957031 433.699219 262.707031 409.601562 268.773438 M 727.582031 474.957031 C 733.320312 473.460938 738.984375 471.546875 744.808594 470.582031 C 751.214844 469.519531 753.0625 466.335938 753.023438 459.976562 C 752.765625 419.441406 752.917969 378.902344 752.871094 338.367188 C 752.867188 336.003906 753.625 333.417969 751.03125 330.433594 C 713.136719 340.078125 674.804688 349.832031 634.664062 360.042969 C 659.304688 375.148438 682.132812 389.335938 705.179688 403.152344 C 711.835938 407.144531 714.90625 412.414062 714.851562 420.03125 C 714.730469 436.839844 714.894531 453.648438 714.761719 470.457031 C 714.71875 475.863281 716.144531 478.691406 722.113281 476.371094 C 723.480469 475.835938 724.988281 475.660156 727.582031 474.957031 M 754.890625 594.308594 C 742.09375 586.359375 729.175781 578.605469 716.5625 570.375 C 711.210938 566.882812 706.265625 566.066406 699.976562 567.757812 C 674.242188 574.675781 648.359375 581.054688 622.539062 587.660156 C 611.253906 590.546875 599.988281 593.496094 588.5 596.46875 C 590.019531 599.578125 592.203125 600.371094 594.050781 601.519531 C 613.972656 613.90625 634.050781 626.054688 653.773438 638.746094 C 659.742188 642.589844 665.132812 643.042969 671.828125 641.238281 C 697.328125 634.375 722.972656 628.046875 748.554688 621.472656 C 759.835938 618.574219 771.085938 615.5625 784.203125 612.113281 C 773.476562 605.609375 764.640625 600.25 754.890625 594.308594 M 625.230469 366.089844 C 622.15625 363.578125 618.929688 364.292969 615.421875 365.195312 C 586.726562 372.570312 557.988281 379.800781 529.269531 387.085938 C 519.816406 389.484375 510.371094 391.925781 500.566406 394.4375 C 502.78125 397.738281 505.511719 399.039062 507.992188 400.5625 C 527.796875 412.710938 547.714844 424.667969 567.410156 436.988281 C 572.425781 440.125 577.039062 440.796875 582.777344 439.304688 C 617.4375 430.285156 652.1875 421.601562 686.886719 412.742188 C 689.617188 412.046875 692.65625 411.851562 695.355469 409.160156 C 672.011719 394.824219 649.085938 380.75 625.230469 366.089844 M 457.28125 220.757812 C 465.300781 225.644531 473.402344 230.410156 481.308594 235.46875 C 485.113281 237.902344 488.675781 238.484375 493.167969 237.320312 C 525.207031 229.011719 557.324219 221.023438 589.382812 212.796875 C 595.390625 211.253906 601.726562 210.570312 607.652344 207.421875 C 606.648438 206.472656 606.1875 205.863281 605.582031 205.488281 C 583.054688 191.636719 560.484375 177.847656 538 163.925781 C 534.199219 161.574219 530.601562 162.152344 526.644531 163.160156 C 490.75 172.320312 454.824219 181.359375 418.929688 190.515625 C 417.03125 191 414.492188 190.78125 413.421875 193.746094 C 427.785156 202.582031 442.078125 211.378906 457.28125 220.757812 M 338.253906 265.59375 C 346.496094 272.988281 355.375 272.707031 365.710938 269.832031 C 393.0625 262.226562 420.730469 255.746094 448.25 248.742188 C 455.945312 246.785156 463.578125 244.566406 472.214844 242.203125 C 470.25 240.601562 469.554688 239.894531 468.730469 239.386719 C 446.414062 225.671875 424.054688 212.019531 401.785156 198.226562 C 398.492188 196.191406 395.445312 196.355469 391.914062 197.265625 C 366.804688 203.71875 341.652344 210.003906 316.527344 216.398438 C 303.710938 219.660156 290.925781 223.042969 275.742188 226.988281 C 297.605469 240.5 317.464844 252.773438 338.253906 265.59375 M 583.726562 138.164062 C 607.523438 132.144531 631.320312 126.125 656.300781 119.808594 C 654.308594 117.953125 653.707031 117.183594 652.925781 116.703125 C 630.644531 102.941406 608.300781 89.277344 586.085938 75.40625 C 582.46875 73.144531 579.160156 73.699219 575.503906 74.636719 C 553.269531 80.332031 531.011719 85.941406 508.773438 91.625 C 493.3125 95.578125 477.871094 99.605469 462.421875 103.601562 C 462.113281 104.28125 461.804688 104.964844 461.5 105.644531 C 462.445312 106.007812 463.476562 106.230469 464.328125 106.753906 C 487.050781 120.742188 509.777344 134.722656 532.433594 148.816406 C 535.097656 150.472656 537.585938 150.03125 540.234375 149.355469 C 554.34375 145.75 568.453125 142.132812 583.726562 138.164062 M 428.761719 101.695312 C 429.828125 101.226562 430.890625 100.757812 432.515625 100.042969 C 431.332031 99.015625 430.703125 98.292969 429.921875 97.8125 C 407.199219 83.808594 384.421875 69.886719 361.765625 55.777344 C 358.789062 53.925781 356.144531 54.554688 353.292969 55.28125 C 318.125 64.261719 282.957031 73.238281 247.800781 82.269531 C 244.648438 83.078125 241.585938 84.246094 237.289062 85.632812 C 261.855469 100.6875 285.039062 114.855469 308.160156 129.121094 C 310.890625 130.808594 313.359375 131.171875 316.515625 130.355469 C 353.582031 120.792969 390.6875 111.378906 428.761719 101.695312 M 301.527344 144.378906 C 264.507812 153.875 227.484375 163.371094 190.464844 172.867188 C 214.027344 189.324219 237.585938 203.738281 261.164062 218.128906 C 263.722656 219.691406 266.367188 218.96875 269.050781 218.285156 C 302.535156 209.742188 336.050781 201.308594 369.503906 192.644531 C 374.152344 191.441406 379.257812 191.46875 384.863281 187.570312 C 383.417969 186.925781 382.457031 186.625 381.625 186.113281 C 359.089844 172.308594 336.527344 158.539062 314.078125 144.597656 C 310.160156 142.164062 306.539062 143.195312 301.527344 144.378906 M 595.777344 187.699219 C 602.527344 191.824219 609.5625 195.554688 615.933594 200.199219 C 620.882812 203.808594 625.523438 203.972656 631.136719 202.515625 C 664.125 193.941406 697.1875 185.65625 730.1875 177.132812 C 734.308594 176.066406 738.789062 175.628906 742.867188 172.621094 C 741.492188 171.488281 740.648438 170.605469 739.644531 169.988281 C 717.546875 156.382812 695.390625 142.867188 673.363281 129.152344 C 669.953125 127.027344 666.898438 127.628906 663.488281 128.496094 C 632.609375 136.320312 601.714844 144.066406 570.835938 151.902344 C 563.523438 153.757812 556.273438 155.855469 547.65625 158.207031 C 564.230469 168.351562 579.550781 177.726562 595.777344 187.699219 M 272.238281 141.488281 C 280.101562 139.386719 287.96875 137.289062 296.867188 134.914062 C 294.882812 133.203125 294.222656 132.460938 293.414062 131.960938 C 271.304688 118.382812 249.164062 104.859375 227.082031 91.234375 C 223.609375 89.09375 220.230469 89.160156 216.453125 90.125 C 186.792969 97.703125 157.097656 105.144531 127.433594 112.695312 C 119.222656 114.789062 111.070312 117.113281 102.242188 119.503906 C 103.613281 120.964844 104.019531 121.625 104.609375 121.988281 C 127.117188 135.855469 149.675781 149.644531 172.132812 163.59375 C 175.480469 165.675781 178.5625 165.265625 182.015625 164.386719 C 211.6875 156.816406 241.375 149.324219 272.238281 141.488281 M 411.699219 74.867188 C 421.183594 80.660156 430.78125 86.269531 440.101562 92.3125 C 445.226562 95.636719 450.046875 96.464844 456.128906 94.863281 C 486.433594 86.878906 516.882812 79.445312 547.214844 71.5625 C 554.019531 69.796875 561.113281 68.753906 569.832031 64.539062 C 567.636719 63.722656 566.613281 63.515625 565.773438 63.003906 C 543.203125 49.265625 520.621094 35.546875 498.125 21.683594 C 494.734375 19.59375 491.570312 20.273438 488.195312 21.132812 C 452.804688 30.109375 417.398438 39.042969 382.03125 48.109375 C 379.664062 48.71875 376.683594 48.667969 374.664062 51.976562 C 386.914062 59.535156 398.851562 66.90625 411.699219 74.867188 M 406.804688 117.550781 C 379.878906 124.417969 352.957031 131.285156 325.242188 138.355469 C 326.707031 139.917969 327.097656 140.5625 327.675781 140.917969 C 350.414062 154.933594 373.171875 168.917969 395.917969 182.921875 C 398.113281 184.273438 400.261719 184.839844 402.929688 184.152344 C 414.179688 181.257812 425.484375 178.566406 436.761719 175.785156 C 439.863281 175.019531 442.015625 173.722656 441.988281 169.828125 C 441.84375 149.882812 441.921875 129.9375 441.921875 108.714844 C 429.871094 111.765625 418.9375 114.53125 406.804688 117.550781 M 737.210938 571.757812 C 742.214844 573.941406 746.007812 578.777344 752.375 579.007812 C 752.375 545.578125 752.375 512.625 752.375 478.710938 C 741.652344 481.40625 731.707031 484.09375 721.664062 486.351562 C 716.296875 487.5625 714.59375 490.488281 714.71875 495.800781 C 715.011719 508.144531 716.199219 520.695312 714.503906 532.808594 C 711.828125 551.925781 718.167969 564.550781 737.210938 571.757812 M 317.800781 463.269531 C 302.605469 478.488281 287.398438 493.699219 272.21875 508.933594 C 269.910156 511.253906 267.042969 513.457031 268.980469 517.996094 C 293.863281 493.253906 318.363281 468.910156 342.835938 444.535156 C 344.636719 442.738281 345.453125 440.65625 343.375 437.15625 C 334.742188 445.976562 326.644531 454.253906 317.800781 463.269531 M 220.199219 422.089844 C 231.222656 411.089844 242.253906 400.089844 253.269531 389.078125 C 255.628906 386.71875 258.191406 384.386719 256.59375 380.359375 C 255.691406 380.664062 255.109375 380.683594 254.808594 380.988281 C 230.84375 404.925781 206.898438 428.882812 182.964844 452.851562 C 181.015625 454.800781 179.691406 456.90625 181.957031 460.667969 C 194.804688 447.714844 207.132812 435.277344 220.199219 422.089844 M 195.3125 585.722656 C 190.53125 592.007812 181.980469 595.546875 180.441406 605.085938 C 181.839844 604.789062 182.460938 604.847656 182.746094 604.566406 C 206.601562 580.890625 230.433594 557.195312 254.253906 533.484375 C 256.355469 531.394531 258.035156 529.125 256.125 524.714844 C 235.722656 545.183594 215.886719 565.082031 195.3125 585.722656 M 603.78125 721.003906 C 619.699219 705.089844 635.644531 689.199219 651.507812 673.234375 C 653.953125 670.773438 657.464844 668.582031 656.625 666.398438 C 631.75 691.027344 606.296875 716.226562 580.847656 741.425781 C 589.414062 736.386719 595.757812 728.496094 603.78125 721.003906 M 530.234375 643.03125 C 518.882812 654.363281 507.523438 665.6875 496.179688 677.027344 C 493.800781 679.40625 491.027344 681.65625 492.226562 685.777344 C 492.910156 685.585938 493.507812 685.601562 493.800781 685.3125 C 517.996094 661.355469 542.179688 637.386719 566.332031 613.382812 C 568.296875 611.429688 569.652344 609.152344 567.710938 605.605469 C 555.328125 617.980469 543.160156 630.132812 530.234375 643.03125 M 107.714844 542.671875 C 103.058594 548.265625 96.152344 552.132812 93.3125 559.71875 C 96.511719 560.535156 97.621094 558.933594 98.773438 557.789062 C 121.578125 535.175781 144.339844 512.515625 167.117188 489.878906 C 169.300781 487.710938 170.332031 485.296875 169.246094 480.855469 C 148.464844 501.734375 128.460938 521.832031 107.714844 542.671875 M 342.929688 589.429688 C 344.382812 587.707031 345.421875 585.9375 343.847656 583.703125 C 343.160156 583.996094 342.613281 584.074219 342.300781 584.386719 C 318.398438 608.265625 294.511719 632.160156 270.636719 656.0625 C 268.835938 657.863281 267.417969 659.824219 269.019531 663.417969 C 293.609375 638.828125 317.933594 614.503906 342.929688 589.429688 M 225.824219 257.015625 C 235.636719 247.09375 245.445312 237.175781 255.46875 227.039062 C 251.359375 224.285156 250.160156 226.421875 248.882812 227.695312 C 227.027344 249.445312 205.21875 271.234375 183.402344 293.019531 C 181.441406 294.980469 179.695312 297.039062 181.472656 301.265625 C 196.25 286.519531 210.664062 272.136719 225.824219 257.015625 M 257.015625 394.757812 C 255.203125 394.484375 254.410156 395.96875 253.417969 396.960938 C 231.363281 418.988281 209.332031 441.03125 187.339844 463.117188 C 186.050781 464.410156 183.945312 465.429688 184.648438 467.972656 C 188.082031 470.46875 189.554688 467.222656 191.261719 465.519531 C 211.773438 445.105469 232.214844 424.617188 252.664062 404.136719 C 255.101562 401.699219 257.878906 399.417969 257.015625 394.757812 M 151.949219 359.789062 C 169.136719 342.386719 169.136719 342.386719 168.621094 336.53125 C 143.835938 362.199219 118.132812 386.039062 94.203125 411.597656 C 95.160156 412.554688 96.117188 413.515625 97.074219 414.472656 C 115.121094 396.496094 133.164062 378.515625 151.949219 359.789062 M 286.199219 350.015625 C 280.003906 356.550781 272.398438 361.929688 267.480469 370.46875 C 270.722656 371.511719 271.855469 370.523438 272.875 369.503906 C 296.082031 346.273438 319.277344 323.035156 342.457031 299.78125 C 344.417969 297.8125 345.441406 295.601562 343.921875 292.589844 C 342.894531 293.296875 342.21875 293.625 341.722656 294.125 C 323.441406 312.496094 305.175781 330.878906 286.199219 350.015625 M 106.1875 224.972656 C 102.050781 230.375 94.902344 233.601562 92.8125 242.402344 C 105.558594 234.433594 162.765625 175.515625 162.039062 169.140625 C 143.667969 187.503906 125.296875 205.867188 106.1875 224.972656 M 253.640625 258.011719 C 255.859375 255.753906 258.121094 253.511719 256.214844 248.757812 C 232.4375 272.613281 209.210938 295.917969 185.984375 319.21875 C 186.933594 320.183594 187.886719 321.148438 188.835938 322.109375 C 210.824219 301.664062 231.433594 279.761719 253.640625 258.011719 M 271.683594 646.527344 C 279.542969 638.679688 287.410156 630.84375 295.253906 622.984375 C 302.925781 615.296875 310.730469 607.742188 318.175781 599.839844 C 325.425781 592.144531 334.414062 585.859375 340.0625 576.074219 C 336.808594 574.921875 335.820312 576.222656 334.8125 577.230469 C 313.695312 598.339844 292.601562 619.472656 271.507812 640.605469 C 269.746094 642.367188 267.8125 644.214844 268.386719 646.949219 C 268.832031 649.0625 270.078125 647.8125 271.683594 646.527344 M 650.992188 652.878906 C 629.070312 674.925781 607.089844 696.910156 585.300781 719.089844 C 582.535156 721.90625 577.972656 724.199219 579.054688 730.355469 C 580.457031 729.304688 581.285156 728.828125 581.941406 728.175781 C 605.535156 704.652344 629.117188 681.117188 652.683594 657.566406 C 653.71875 656.527344 655.15625 655.417969 655.398438 654.148438 C 656.195312 649.988281 653.996094 650.769531 650.992188 652.878906 M 255.863281 235.386719 C 250.875 240.144531 245.785156 244.796875 240.917969 249.671875 C 222.097656 268.53125 203.324219 287.441406 184.597656 306.394531 C 182.574219 308.4375 179.671875 310.414062 181.28125 314.285156 C 182.203125 313.9375 182.769531 313.894531 183.078125 313.585938 C 206.867188 289.921875 230.648438 266.246094 254.394531 242.53125 C 256.3125 240.613281 258.210938 238.507812 255.863281 235.386719 M 149.019531 493.425781 C 155.621094 486.027344 163.863281 480.019531 169.960938 471.175781 C 165.515625 469.875 164.132812 471.96875 162.660156 473.433594 C 140.808594 495.160156 118.996094 516.933594 97.210938 538.726562 C 94.996094 540.945312 92.511719 543.175781 93.953125 548.195312 C 112.417969 529.839844 130.351562 512.007812 149.019531 493.425781 M 548.988281 499.96875 C 555.328125 491.859375 565.644531 486.832031 567.796875 480.457031 C 547.671875 500.421875 525.035156 522.871094 503.121094 544.605469 C 501.871094 544.363281 502.882812 544.867188 503.21875 544.582031 C 519.152344 530.910156 533.101562 515.195312 548.988281 499.96875 M 528.078125 666.089844 C 539.714844 654.371094 551.417969 642.710938 562.945312 630.886719 C 565.527344 628.238281 569.230469 625.789062 568.355469 620.304688 C 546.957031 637.863281 499.730469 687.386719 500.011719 693.9375 C 509.757812 684.273438 518.546875 675.554688 528.078125 666.089844 M 329.121094 327.636719 C 344.390625 312.617188 344.390625 312.617188 345.535156 309.660156 C 322.867188 332.042969 300.199219 354.425781 277.800781 376.542969 C 277.578125 376.503906 278.941406 377.128906 279.324219 376.753906 C 295.730469 360.6875 312.050781 344.53125 329.121094 327.636719 M 330.625 435.996094 C 311.957031 454.644531 293.214844 473.21875 274.699219 492.019531 C 271.910156 494.847656 267.457031 497.300781 266.761719 500.375 C 291.40625 476.121094 316.050781 451.867188 340.269531 428.03125 C 336.09375 427.636719 334.660156 432.863281 330.625 435.996094 M 498.824219 500.300781 C 496.113281 503.886719 490.878906 506.023438 491.566406 512.292969 C 503.203125 504.636719 558.042969 448.167969 557.136719 442.167969 C 537.949219 461.296875 518.761719 480.425781 498.824219 500.300781 M 128.453125 536.691406 C 123.734375 541.410156 118.824219 545.953125 114.351562 550.894531 C 110.210938 555.476562 104.382812 558.875 102.78125 565.519531 C 104.46875 565.605469 105.746094 565.3125 106.535156 564.53125 C 126.902344 544.355469 147.222656 524.136719 167.527344 503.902344 C 169.46875 501.96875 170.363281 499.71875 169.027344 495.875 C 155.289062 509.699219 142.242188 522.824219 128.453125 536.691406 M 299.203125 496.628906 C 290.730469 505.132812 282.257812 513.636719 273.308594 522.621094 C 277.742188 524.65625 278.980469 522.59375 280.238281 521.34375 C 300.945312 500.800781 321.589844 480.199219 342.21875 459.578125 C 343.953125 457.84375 345.671875 455.9375 343.472656 452.253906 C 328.808594 466.953125 314.378906 481.421875 299.203125 496.628906 M 185.886719 615.296875 C 209.527344 593.523438 231.144531 569.707031 254.242188 547.382812 C 256.109375 545.574219 257.851562 543.601562 256.320312 540.175781 C 255.085938 541.105469 254.246094 541.601562 253.578125 542.265625 C 231.015625 564.792969 208.460938 587.332031 185.9375 609.898438 C 184.738281 611.097656 183.398438 612.417969 182.855469 613.941406 C 182.324219 615.4375 183.703125 615.960938 185.886719 615.296875 M 109.246094 410.550781 C 107.488281 413.09375 103.453125 414.378906 104.292969 418.445312 C 106.84375 419.484375 108.0625 418.074219 109.257812 416.882812 C 128.519531 397.671875 147.761719 378.433594 167 359.195312 C 168.945312 357.253906 170.429688 355.160156 168.367188 350.914062 C 148.53125 370.925781 129.253906 390.375 109.246094 410.550781 M 235.613281 232.667969 C 238.867188 228.847656 243.4375 226.117188 245.664062 221.328125 C 242.296875 218.789062 240.65625 221.277344 239.039062 222.882812 C 220.476562 241.332031 201.976562 259.847656 183.460938 278.339844 C 181.367188 280.429688 179.597656 282.585938 181.855469 287.25 C 199.949219 268.875 217.414062 251.144531 235.613281 232.667969 M 112.246094 262.171875 C 110.214844 265.1875 105.683594 266.542969 105.777344 270.957031 C 108.542969 273.039062 109.910156 271.078125 111.210938 269.78125 C 129.78125 251.296875 148.304688 232.761719 166.828125 214.226562 C 168.910156 212.144531 170.441406 209.882812 168.308594 205.511719 C 149.4375 224.589844 131.207031 243.015625 112.246094 262.171875 M 321.371094 285.746094 C 304.988281 302.152344 288.601562 318.558594 272.230469 334.976562 C 269.925781 337.285156 267.171875 339.464844 268.96875 344.582031 C 291.699219 321.609375 314.367188 299.875 334.898438 276.027344 C 328.558594 276.445312 326.179688 281.824219 321.371094 285.746094 M 518.652344 509.714844 C 509.925781 519.355469 499.332031 527.367188 491.074219 538.296875 C 494.359375 539.628906 495.363281 538.8125 496.222656 537.953125 C 519.613281 514.617188 542.996094 491.269531 566.339844 467.882812 C 568.058594 466.160156 569.707031 464.179688 567.914062 461.699219 C 551.71875 477.480469 535.558594 493.226562 518.652344 509.714844 M 183.234375 429.984375 C 201.996094 411.34375 220.78125 392.726562 239.484375 374.03125 C 241.15625 372.359375 244.019531 370.71875 242.0625 367.601562 C 239.546875 367.046875 238.539062 368.722656 237.378906 369.875 C 219.503906 387.660156 201.664062 405.476562 183.824219 423.292969 C 182.066406 425.046875 180.238281 426.789062 180.574219 429.621094 C 180.746094 431.066406 181.503906 431.183594 183.234375 429.984375 M 150.964844 171.917969 C 152.378906 169.804688 155.519531 168.738281 155.039062 165.410156 C 151.816406 163.289062 150.449219 166.125 148.875 167.691406 C 131.554688 184.945312 114.28125 202.25 97.050781 219.597656 C 94.875 221.785156 92.128906 223.917969 94.261719 229.761719 C 113.394531 210.246094 131.824219 191.449219 150.964844 171.917969 M 136.503906 209.269531 C 123.433594 222.394531 110.34375 235.503906 97.308594 248.664062 C 95.257812 250.730469 92.320312 252.570312 93.660156 256.710938 C 94.800781 256.089844 95.546875 255.871094 96.03125 255.390625 C 119.660156 231.867188 143.277344 208.332031 166.847656 184.75 C 168.5 183.097656 170.523438 181.28125 167.914062 177.070312 C 157.472656 187.777344 147.359375 198.152344 136.503906 209.269531 M 115.558594 375.359375 C 108.035156 383.886719 98.316406 390.605469 93.257812 401.160156 C 108.070312 391.929688 168.378906 329.402344 168.941406 322.203125 C 150.757812 340.3125 133.53125 357.464844 115.558594 375.359375 M 495.78125 518.019531 C 493.582031 520.40625 490.769531 522.519531 489.984375 524.34375 C 515.65625 499.167969 541.332031 473.992188 567.003906 448.8125 C 542.601562 470.683594 519.722656 494.148438 495.78125 518.019531 M 325.730469 301.980469 C 332.082031 295.554688 338.4375 289.132812 345.566406 281.929688 C 339.910156 280.34375 338.363281 283.15625 336.621094 284.898438 C 314.8125 306.683594 293.101562 328.5625 271.40625 350.464844 C 269.617188 352.273438 267.140625 354.046875 269.476562 358.328125 C 288.183594 339.578125 306.578125 321.140625 325.730469 301.980469 M 219.050781 300.710938 C 211.09375 308.980469 202.484375 316.683594 194.816406 325.734375 C 198.5625 327.855469 199.78125 326.351562 200.953125 325.179688 C 218.789062 307.363281 236.609375 289.53125 254.382812 271.65625 C 256.253906 269.777344 258.277344 267.730469 255.953125 263.632812 C 243.714844 275.933594 231.753906 287.949219 219.050781 300.710938 M 210.3125 461.191406 C 224.367188 447.019531 238.445312 432.863281 252.460938 418.652344 C 254.757812 416.324219 257.796875 414.199219 258.183594 411.867188 C 237.1875 432.820312 216.1875 453.773438 195.667969 474.246094 C 201.476562 472.691406 204.519531 465.980469 210.3125 461.191406 M 539.46875 625.527344 C 548.695312 616.300781 557.921875 607.074219 567.628906 597.363281 C 563.453125 595.214844 562.105469 596.933594 560.777344 598.261719 C 538.734375 620.277344 516.726562 642.320312 494.699219 664.347656 C 492.601562 666.449219 491.273438 668.761719 491.703125 672.113281 C 492.652344 671.660156 493.175781 671.550781 493.492188 671.234375 C 508.582031 656.253906 523.648438 641.257812 539.46875 625.527344 M 143.523438 324.65625 C 146.742188 320.796875 151.425781 318.148438 153.707031 313.027344 C 146.824219 313.035156 94.457031 365.167969 93.53125 374.511719 C 110.8125 357.273438 126.796875 341.335938 143.523438 324.65625 M 532.269531 452.078125 C 520.070312 464.308594 507.863281 476.535156 495.675781 488.773438 C 493.152344 491.3125 490.347656 493.773438 490.054688 496.140625 C 509.640625 476.425781 529.222656 456.710938 548.773438 437.03125 C 542.453125 440.117188 538.449219 446.664062 532.269531 452.078125 M 238.769531 528.246094 C 220.871094 545.949219 202.957031 563.640625 185.082031 581.371094 C 180.820312 585.597656 180.875 585.65625 182.097656 590.917969 C 205.03125 567.5625 228.59375 545.40625 249.757812 520.851562 C 244.75 521.070312 242.558594 524.878906 238.769531 528.246094 M 538.242188 518.910156 C 528.445312 528.722656 518.648438 538.535156 508.664062 548.535156 C 512.40625 551.1875 514.089844 549.425781 515.613281 547.894531 C 532.476562 530.9375 549.304688 513.941406 566.125 496.941406 C 568 495.042969 569.34375 492.96875 567.671875 489.25 C 557.699219 499.304688 548.339844 508.734375 538.242188 518.910156 M 135.699219 230.734375 C 147.242188 218.722656 159.804688 207.613281 171.230469 194.125 C 146.28125 218.707031 122.15625 242.472656 98.03125 266.242188 C 98.304688 266.5625 98.582031 266.878906 98.859375 267.199219 C 110.890625 255.289062 122.921875 243.378906 135.699219 230.734375 M 323.792969 275.089844 C 324.921875 273.480469 327.777344 272.261719 325.175781 269.863281 C 323.574219 269.179688 322.585938 270.023438 321.726562 270.882812 C 304.601562 287.972656 287.492188 305.074219 270.40625 322.199219 C 268.597656 324.011719 267.324219 326.078125 269.101562 329.621094 C 287.257812 311.511719 305.171875 293.648438 323.792969 275.089844 M 297.558594 649.359375 C 311.875 635.019531 326.21875 620.703125 340.484375 606.3125 C 342.53125 604.242188 345.527344 602.34375 345.945312 600.820312 C 322.175781 624.398438 298.410156 647.972656 274.640625 671.546875 C 274.699219 671.652344 274.757812 671.757812 274.816406 671.863281 C 282.152344 664.613281 289.488281 657.359375 297.558594 649.359375 M 190.652344 437.058594 C 211.34375 416.34375 232.039062 395.625 253.28125 374.355469 C 249.15625 372.484375 247.890625 373.851562 246.699219 375.039062 C 225.523438 396.171875 204.363281 417.320312 183.242188 438.507812 C 181.585938 440.167969 179.566406 441.964844 182.769531 446.863281 C 185.382812 443.542969 187.648438 440.667969 190.652344 437.058594 M 316.40625 427.753906 C 319.078125 424.476562 323.171875 422.285156 324.648438 417.992188 C 321.078125 415.5 319.613281 418.277344 318.035156 419.84375 C 302.449219 435.332031 286.9375 450.894531 271.421875 466.449219 C 269.320312 468.554688 267.136719 470.667969 269.011719 475.167969 C 284.792969 459.378906 300.230469 443.933594 316.40625 427.753906 M 123.207031 483.941406 C 112.90625 494.699219 101.621094 504.589844 92.851562 516.691406 C 104.757812 511.25 149.773438 464.785156 149.714844 457.464844 C 140.445312 466.722656 132.195312 474.960938 123.207031 483.941406 M 499.582031 630.199219 C 496.535156 633.96875 491.34375 636.433594 491.484375 642.902344 C 504.015625 634.632812 546.796875 589.878906 547.074219 582.671875 C 530.675781 599.082031 515.5 614.265625 499.582031 630.199219 M 216.109375 230.972656 C 205.644531 241.433594 195.167969 251.882812 184.722656 262.363281 C 182.382812 264.710938 179.566406 266.9375 179.632812 269.105469 C 198.199219 250.832031 216.765625 232.558594 235.328125 214.28125 C 227.75 217.679688 223.023438 224.867188 216.109375 230.972656 M 149.136719 327.300781 C 131.851562 344.621094 114.550781 361.933594 97.300781 379.289062 C 95.25 381.351562 92.300781 383.199219 92.148438 384.945312 C 114.9375 362.195312 137.730469 339.449219 159.578125 317.640625 C 155.824219 318.191406 153.820312 323.6875 149.136719 327.300781 M 603.332031 692.347656 C 618.175781 677.386719 633.019531 662.425781 648.433594 646.886719 C 643.820312 644.90625 642.683594 646.945312 641.386719 648.242188 C 621.488281 668.164062 601.617188 688.113281 581.789062 708.101562 C 580.015625 709.890625 577.808594 711.753906 580.199219 717.109375 C 588.199219 708.53125 595.398438 700.8125 603.332031 692.347656 M 655.058594 683.503906 C 655.996094 682.015625 656.808594 680.515625 657.839844 681.148438 C 635.386719 703.40625 612.929688 725.667969 590.476562 747.929688 C 590.542969 748.003906 590.613281 748.078125 590.683594 748.152344 C 611.929688 726.851562 633.179688 705.550781 655.058594 683.503906 M 118.886719 270.210938 C 117.449219 272.179688 114.457031 273.296875 114.941406 276.503906 C 118.316406 277.402344 120.023438 275.3125 121.695312 273.65625 C 136.78125 258.710938 151.800781 243.699219 166.8125 228.683594 C 168.738281 226.757812 170.613281 224.726562 168.246094 220.398438 C 151.804688 236.992188 135.707031 253.238281 118.886719 270.210938 M 159.820312 466.773438 C 155.5 462.652344 153.792969 467.78125 152.007812 469.546875 C 133.566406 487.8125 115.363281 506.316406 97.140625 524.800781 C 95.164062 526.808594 92.4375 528.628906 93.679688 532.570312 C 115.757812 510.796875 137.644531 489.207031 159.820312 466.773438 M 224.921875 367.472656 C 211.503906 380.910156 198.082031 394.339844 184.683594 407.792969 C 182.363281 410.125 179.417969 412.285156 181.15625 416.496094 C 194.890625 406.546875 232.980469 366.527344 233.230469 361.714844 C 229.289062 361.304688 228.117188 365.027344 224.921875 367.472656 M 512.140625 632.34375 C 508.304688 636.1875 504.457031 640.019531 500.632812 643.875 C 492.4375 652.136719 492.445312 652.140625 490.835938 655.632812 C 512.507812 633.851562 534.179688 612.074219 555.851562 590.296875 C 555.609375 590.027344 555.371094 589.757812 555.128906 589.488281 C 541.046875 603.527344 526.964844 617.5625 512.140625 632.34375 M 299.28125 371.984375 C 313.199219 357.976562 327.128906 343.984375 341.011719 329.945312 C 342.988281 327.941406 345.84375 326.15625 344.09375 322.492188 C 336.285156 327.535156 288 376.65625 285.609375 382.710938 C 291.800781 380.75 294.472656 375.777344 299.28125 371.984375 M 203.410156 607.179688 C 199.632812 611.664062 194.199219 614.824219 191.296875 621.269531 C 199.886719 618.488281 255.726562 561.738281 256.832031 553.789062 C 238.546875 572.0625 221.347656 589.25 203.410156 607.179688 M 314.601562 443.746094 C 321.074219 437.164062 327.546875 430.582031 334.019531 424.003906 C 325.042969 424.984375 269.429688 481.894531 268.652344 489.714844 C 284.421875 473.9375 299.140625 459.210938 314.601562 443.746094 M 160.367188 374.167969 C 144.210938 390.316406 128.054688 406.464844 111.253906 423.257812 C 115.898438 425.113281 117.1875 423.242188 118.496094 421.945312 C 134.484375 406.105469 150.429688 390.222656 166.34375 374.304688 C 168.421875 372.226562 170.566406 370.03125 167.511719 364.617188 C 165.375 367.558594 163.238281 370.496094 160.367188 374.167969 M 568.515625 636.5 C 566.214844 634.652344 565.488281 637.214844 564.53125 638.164062 C 546.308594 656.253906 528.15625 674.417969 510.03125 692.609375 C 508.914062 693.730469 507.117188 694.722656 508.066406 696.957031 C 510.878906 698.546875 512.101562 696.011719 513.515625 694.613281 C 531.0625 677.25 548.542969 659.816406 566.046875 642.410156 C 567.484375 640.980469 568.679688 639.457031 568.515625 636.5 M 284.148438 619.625 C 299.878906 603.519531 316.304688 588.0625 330.722656 570.625 C 328.980469 569.992188 327.914062 570.101562 327.324219 570.6875 C 308.226562 589.683594 289.164062 608.710938 270.148438 627.785156 C 268.640625 629.296875 267.34375 631.140625 270.335938 635.042969 C 274.914062 629.890625 279.152344 625.121094 284.148438 619.625 M 95.816406 357.515625 C 112.230469 341.375 128.691406 325.277344 145.898438 307.394531 C 139.804688 306.207031 138.371094 308.890625 136.609375 310.621094 C 129.578125 317.523438 122.652344 324.53125 115.695312 331.507812 C 109.085938 338.136719 102.398438 344.691406 95.914062 351.441406 C 92.542969 354.953125 92.6875 355.296875 95.816406 357.515625 M 512.382812 457.429688 C 491.617188 478.40625 491.617188 478.40625 490.277344 481.425781 C 506.898438 464.90625 523.523438 448.382812 539.910156 432.101562 C 540.507812 432.386719 539.5625 431.644531 539.28125 431.839844 C 529.367188 438.855469 521.964844 448.527344 512.382812 457.429688 M 299.023438 656.761719 C 293.1875 662.726562 287.351562 668.6875 281.214844 674.953125 C 284.804688 676.820312 286.089844 675.375 287.242188 674.222656 C 305.570312 655.949219 323.859375 637.636719 342.132812 619.3125 C 343.8125 617.628906 345.488281 615.828125 343.332031 612.183594 C 328.519531 627.089844 314.140625 641.554688 299.023438 656.761719 M 291.765625 681.722656 C 293.835938 682.441406 295.03125 680.933594 296.195312 679.777344 C 311.578125 664.496094 326.917969 649.171875 342.257812 633.851562 C 344.210938 631.902344 345.53125 629.777344 343.957031 626.578125 C 332.097656 638.300781 320.300781 649.441406 309.148438 661.191406 C 303.003906 667.667969 295.339844 672.847656 291.765625 681.722656 M 189.507812 554.648438 C 203.808594 539.8125 219.152344 525.945312 232.917969 509.996094 C 229.886719 508.304688 228.699219 509.097656 227.613281 510.1875 C 212.625 525.179688 197.636719 540.175781 182.660156 555.1875 C 180.878906 556.972656 179.757812 558.960938 181.488281 562.007812 C 184.082031 559.648438 186.425781 557.511719 189.507812 554.648438 M 591.699219 668.84375 C 587.378906 674.132812 580.613281 677.558594 578.21875 685.632812 C 587.234375 681.464844 627.316406 640.480469 626.824219 633.710938 C 615.363281 645.171875 603.902344 656.636719 591.699219 668.84375 M 290.941406 519.535156 C 288.714844 522.609375 284.347656 524.257812 285.085938 529.53125 C 305.753906 509.949219 326.859375 490.871094 344.777344 468.6875 C 343.464844 467.953125 342.84375 467.902344 342.5625 468.183594 C 325.585938 485.035156 308.636719 501.914062 290.941406 519.535156 M 104.734375 487.742188 C 101.058594 492.773438 94.246094 495.585938 92.886719 503.578125 C 102.621094 498.179688 140.566406 459.273438 140.625 453.40625 C 128.285156 463.917969 116.988281 475.574219 104.734375 487.742188 M 191.394531 566.953125 C 208.214844 550.136719 225.03125 533.324219 242.1875 516.175781 C 238.671875 514.078125 237.539062 515.144531 236.496094 516.183594 C 218.660156 533.914062 200.835938 551.652344 183.035156 569.414062 C 181.351562 571.089844 179.773438 572.914062 182.664062 577.613281 C 185.738281 573.796875 188.195312 570.742188 191.394531 566.953125 M 627.933594 647.207031 C 612.941406 662.234375 597.917969 677.234375 582.980469 692.320312 C 580.929688 694.390625 577.765625 696.195312 579.148438 700.28125 C 590.167969 693.171875 636.335938 645.230469 636.71875 640.449219 C 632.773438 640.855469 631.296875 644.453125 627.933594 647.207031 M 522.9375 598.609375 C 528.722656 592.824219 534.511719 587.042969 540.691406 580.859375 C 536.699219 578.527344 535.0625 580.136719 533.507812 581.691406 C 520.414062 594.785156 507.328125 607.886719 494.285156 621.027344 C 492.425781 622.898438 490.9375 625.027344 492.652344 629.996094 C 503.101562 619.15625 512.648438 609.253906 522.9375 598.609375 M 156.617188 523.285156 C 141.214844 538.761719 125.8125 554.234375 110.414062 569.707031 C 110.953125 570.210938 111.492188 570.710938 112.03125 571.210938 C 120.910156 567.066406 168.667969 517.757812 167.335938 510.921875 C 164.007812 514.796875 160.683594 518.671875 156.617188 523.285156 M 626.441406 721.390625 C 616.730469 731.164062 607.019531 740.9375 596.84375 751.179688 C 600.65625 753.160156 601.8125 751.617188 602.964844 750.46875 C 619.722656 733.75 636.46875 717.015625 653.179688 700.25 C 654.992188 698.433594 657.039062 696.527344 655.144531 692.527344 C 645.527344 702.199219 636.355469 711.425781 626.441406 721.390625 M 270.308594 452.925781 C 268.648438 454.835938 267.226562 456.800781 267.921875 457.976562 C 283.128906 442.628906 298.582031 427.039062 314.03125 411.449219 C 298.757812 423.933594 285.089844 438.273438 270.308594 452.925781 M 257.011719 281.683594 C 255.09375 275.925781 253.316406 281.335938 252.550781 282.09375 C 237.433594 296.972656 222.464844 312.007812 207.519531 327.066406 C 206.265625 328.332031 204.109375 329.402344 206.171875 333.925781 C 223.886719 316.9375 240.890625 300.339844 257.011719 281.683594 M 247.757812 583.226562 C 251.019531 579.246094 256.386719 576.621094 257.550781 569.269531 C 246.507812 577.078125 202.683594 622.0625 201.183594 626.644531 C 201.683594 627.179688 202.1875 627.714844 202.6875 628.25 C 217.460938 613.488281 232.234375 598.730469 247.757812 583.226562 M 291.425781 292.917969 C 300.332031 283.996094 309.242188 275.070312 318.214844 266.078125 C 314.328125 262.730469 312.894531 265.011719 311.421875 266.484375 C 297.964844 279.902344 284.550781 293.359375 271.132812 306.816406 C 269.109375 308.847656 266.988281 310.894531 269.914062 315.867188 C 277.246094 308.03125 283.96875 300.847656 291.425781 292.917969 M 308.441406 682.507812 C 319.230469 671.691406 330.039062 660.898438 340.789062 650.046875 C 343.039062 647.773438 345.8125 645.53125 343.972656 641.355469 C 329.570312 652.5 301.226562 682.734375 300.523438 687.9375 C 304 687.835938 305.585938 685.089844 308.441406 682.507812 M 158.882812 245.011719 C 146.851562 257.035156 134.824219 269.058594 122.578125 281.300781 C 126.269531 283.824219 127.835938 282.292969 129.179688 280.945312 C 141.917969 268.207031 154.601562 255.410156 167.277344 242.613281 C 169.164062 240.710938 170.4375 238.585938 168.488281 233.355469 C 164.894531 237.78125 162.257812 241.027344 158.882812 245.011719 M 223.570312 360.644531 C 224.609375 359.324219 226.417969 357.847656 224.105469 356.410156 C 221.820312 354.988281 220.53125 357.285156 219.222656 358.585938 C 207.320312 370.429688 195.460938 382.316406 183.601562 394.203125 C 181.542969 396.265625 179.691406 398.417969 181.734375 402.765625 C 195.832031 388.589844 209.375 374.972656 223.570312 360.644531 M 292.492188 576.015625 C 285.535156 582.976562 278.546875 589.90625 271.632812 596.914062 C 268.453125 600.140625 268.519531 600.207031 267.21875 602.582031 C 281.8125 587.785156 296.40625 572.988281 310.515625 558.683594 C 304.53125 563.078125 299.261719 569.632812 292.492188 576.015625 M 220.46875 459.46875 C 214.238281 465.703125 208.011719 471.9375 201.550781 478.402344 C 205.179688 480.667969 206.375 479.105469 207.535156 477.949219 C 223.230469 462.292969 238.910156 446.617188 254.539062 430.890625 C 256.132812 429.285156 258.054688 427.503906 255.839844 423.726562 C 243.996094 435.699219 232.605469 447.214844 220.46875 459.46875 M 280.496094 608.546875 C 294.519531 594.476562 308.546875 580.410156 323.054688 565.851562 C 318.738281 563.84375 317.445312 565.726562 316.152344 567.015625 C 300.984375 582.152344 285.863281 597.328125 270.777344 612.542969 C 269.183594 614.152344 267.292969 615.9375 270.613281 621.246094 C 274.09375 616.695312 276.925781 612.992188 280.496094 608.546875 M 111.03125 197.160156 C 123.003906 185.191406 134.980469 173.222656 146.957031 161.253906 C 137.929688 162.027344 93.84375 207.558594 94.328125 215.082031 C 100.277344 208.679688 105.28125 203.289062 111.03125 197.160156 M 203.726562 525.855469 C 210.5 519.046875 217.269531 512.234375 224.039062 505.421875 C 215.109375 505.050781 180.675781 540.910156 181.992188 549.164062 C 189.578125 541.003906 196.277344 533.800781 203.726562 525.855469 M 299.738281 531.164062 C 313.332031 517.566406 326.941406 503.988281 340.5 490.359375 C 342.859375 487.992188 345.867188 485.765625 344.019531 481.042969 C 326.546875 498.601562 309.328125 515.902344 291.058594 534.261719 C 296.152344 535.300781 297.402344 533.207031 299.738281 531.164062 M 521.867188 695.4375 C 520.261719 697.660156 517.0625 698.835938 516.980469 702.394531 C 524.5625 700.5 567.421875 656.855469 568.066406 650.628906 C 567.609375 650.710938 566.996094 650.628906 566.726562 650.894531 C 551.996094 665.480469 537.296875 680.097656 521.867188 695.4375 M 594.230469 658.011719 C 602.804688 648.660156 613.085938 640.828125 621.210938 629.398438 C 612.574219 630.464844 579.292969 665.394531 579.5625 673.785156 C 584.855469 668.070312 589.167969 663.410156 594.230469 658.011719 M 566.199219 511.324219 C 567.785156 509.53125 569.484375 507.769531 569.644531 507.058594 C 553.226562 523.523438 536.808594 539.988281 520.386719 556.453125 C 520.492188 556.574219 520.597656 556.699219 520.703125 556.824219 C 535.625 541.890625 550.546875 526.957031 566.199219 511.324219 M 324.222656 361.332031 C 331.085938 353.574219 340.03125 347.507812 345.886719 337.527344 C 328.558594 354.792969 312.128906 371.164062 295.699219 387.53125 C 305.855469 380.15625 314.457031 370.871094 324.222656 361.332031 M 649.117188 712.988281 C 634.957031 727.371094 620.796875 741.753906 606.546875 756.230469 C 609.007812 758.214844 610.125 757.535156 610.992188 756.679688 C 625.519531 742.324219 640.023438 727.941406 654.503906 713.535156 C 656.144531 711.90625 656.769531 710.023438 655.074219 707.4375 C 653.0625 709.316406 651.46875 710.808594 649.117188 712.988281 M 151.960938 548.316406 C 157.675781 541.394531 166.191406 536.746094 168.46875 531.230469 C 154.394531 545.179688 138.183594 561.246094 121.96875 577.3125 C 122.0625 577.433594 122.15625 577.550781 122.25 577.667969 C 131.910156 568.132812 141.566406 558.597656 151.960938 548.316406 M 649.164062 733.695312 C 651.816406 730.105469 657.371094 728.050781 656.3125 723.746094 C 642.765625 736.296875 628.828125 749.210938 613.9375 763.007812 C 616.449219 763.394531 617.699219 763.984375 618.179688 763.601562 C 629.210938 754.875 638.28125 744.101562 649.164062 733.695312 M 249.902344 595.738281 C 256.675781 588.996094 256.675781 588.996094 257.960938 585.914062 C 242.226562 601.476562 226.488281 617.042969 210.75 632.605469 C 224.339844 621.457031 236.695312 608.914062 249.902344 595.738281 M 334.210938 504.953125 C 323.164062 516.355469 312.117188 527.761719 300.746094 539.5 C 304.417969 541.4375 305.628906 539.945312 306.800781 538.777344 C 318.667969 526.90625 330.496094 515.003906 342.332031 503.101562 C 344.285156 501.136719 345.5 499.011719 343.410156 494.882812 C 340.210938 498.410156 337.582031 501.308594 334.210938 504.953125 M 210.589844 222.480469 C 200.3125 233.253906 188.859375 243 179.863281 254.714844 C 195.429688 239.457031 210.996094 224.203125 226.558594 208.949219 C 219.933594 211.09375 216.445312 217.472656 210.589844 222.480469 M 97.535156 480.558594 C 95.21875 482.933594 92.292969 485.042969 93.769531 490.46875 C 107.59375 476.679688 120.695312 463.605469 133.796875 450.535156 C 132.773438 449.488281 131.75 448.441406 130.722656 447.390625 C 119.90625 458.199219 109.085938 469.007812 97.535156 480.558594 M 127.535156 427.300781 C 140.105469 414.765625 152.699219 402.253906 165.21875 389.667969 C 167.308594 387.570312 170.308594 385.691406 169.667969 383.644531 C 154.492188 398.863281 138.902344 414.5 123.496094 429.949219 C 124.246094 430.378906 125.492188 429.035156 127.535156 427.300781 M 254.328125 599.691406 C 242.195312 611.789062 230.0625 623.886719 218.019531 635.894531 C 219.828125 638.03125 221.238281 638.109375 222.148438 637.292969 C 234.09375 626.578125 245.4375 615.234375 256.269531 603.402344 C 257.234375 602.347656 258.929688 599.46875 254.328125 599.691406 M 301.699219 413.183594 C 303.253906 411.105469 306.15625 409.976562 306.292969 406.828125 C 299.789062 406.167969 268.429688 438.117188 269.230469 446.089844 C 280.25 434.914062 290.609375 424.40625 301.699219 413.183594 M 215.414062 484.675781 C 229.269531 470.683594 243.820312 457.371094 256.753906 442.476562 C 257.351562 441.789062 257.328125 440.597656 255.613281 438.996094 C 241.46875 453.136719 227.246094 467.289062 213.144531 481.558594 C 211.554688 483.167969 211.207031 485.199219 215.414062 484.675781 M 298.042969 562.285156 C 299.933594 559.488281 304.242188 558.179688 303.757812 553.601562 C 295.796875 555.09375 268.476562 584.121094 269.292969 591.65625 C 279.089844 581.640625 288.195312 572.335938 298.042969 562.285156 M 135.320312 158.226562 C 136.222656 156.949219 138.242188 155.921875 136.308594 153.980469 C 128.21875 157.433594 94.226562 192.953125 93.789062 200.863281 C 108.316406 185.953125 121.488281 172.433594 135.320312 158.226562 M 336.957031 662.117188 C 331.925781 667.167969 326.765625 672.097656 321.898438 677.300781 C 317.355469 682.15625 311.675781 686.195312 309.046875 692.539062 C 318.75 689.410156 343.90625 662.40625 343.871094 656.386719 C 340.996094 657.109375 339.710938 659.722656 336.957031 662.117188 M 247.808594 301.28125 C 236.261719 312.855469 224.714844 324.429688 213.167969 336.003906 C 221.519531 335.902344 256.4375 299.804688 255.429688 292.027344 C 253.132812 294.867188 250.835938 297.703125 247.808594 301.28125 M 129.460938 581.800781 C 131.789062 583.816406 133.128906 581.644531 134.382812 580.410156 C 145.292969 569.644531 156.125 558.800781 166.964844 547.964844 C 168.894531 546.039062 170.425781 543.964844 168.753906 540.125 C 155.035156 553.800781 141.496094 566.699219 129.460938 581.800781 M 568.578125 667.605469 C 566.023438 662.585938 564.445312 667.613281 563.511719 668.527344 C 551.824219 679.925781 540.335938 691.53125 528.871094 703.15625 C 527.632812 704.410156 525.367188 705.40625 526.476562 707.953125 C 531.382812 706.660156 558.867188 680.738281 568.578125 667.605469 M 340.515625 513.214844 C 330.253906 523.527344 319.988281 533.839844 308.878906 545 C 317.417969 545.644531 344.609375 517.4375 343.570312 510.8125 C 342.699219 511.445312 341.929688 512.003906 340.515625 513.214844 M 95.242188 343.289062 C 108.910156 329.777344 122.582031 316.265625 136.519531 302.488281 C 133.417969 300.417969 132.183594 301.113281 131.074219 302.230469 C 119.015625 314.296875 106.949219 326.355469 94.945312 338.472656 C 93.527344 339.902344 93.691406 340.0625 95.242188 343.289062 M 280.882812 282.390625 C 277.007812 288.035156 269.347656 291.039062 268.324219 297.59375 C 281 284.933594 294.089844 271.863281 307.179688 258.792969 C 297.40625 264.84375 290.339844 274.207031 280.882812 282.390625 M 516.433594 445.152344 C 521.90625 439.523438 527.382812 433.898438 532.859375 428.273438 C 524.933594 428.738281 492.324219 462.324219 491.507812 470.742188 C 500.40625 461.597656 508.046875 453.746094 516.433594 445.152344 M 341.496094 352.660156 C 329.140625 365.953125 315.484375 378.082031 304.433594 392.648438 C 306.160156 393.171875 307.167969 392.953125 307.78125 392.34375 C 319.292969 380.90625 330.757812 369.417969 342.238281 357.945312 C 343.875 356.3125 345.199219 354.425781 344.621094 352.070312 C 344.089844 349.917969 342.960938 351.195312 341.496094 352.660156 M 198.390625 510.132812 C 192.625 517.410156 183.144531 521.824219 180.082031 531.835938 C 191.472656 520.414062 202.382812 509.472656 213.871094 497.957031 C 206.535156 499.027344 203.972656 505.851562 198.390625 510.132812 M 566.800781 525.335938 C 568.15625 523.640625 569.519531 521.949219 569.765625 521.992188 C 556.320312 535.402344 542.875 548.8125 529.429688 562.222656 C 529.503906 562.296875 529.574219 562.375 529.648438 562.453125 C 541.800781 550.324219 553.953125 538.195312 566.800781 525.335938 M 246.109375 468.773438 C 249.707031 463.789062 256.851562 461.1875 257.425781 451.664062 C 244.25 465.363281 231.179688 476.355469 220.914062 490.207031 C 231.144531 485.757812 237.375 476.578125 246.109375 468.773438 M 550.949219 694.898438 C 545.34375 700.519531 539.539062 705.96875 534.503906 713.070312 C 543.40625 711.578125 568.476562 685.269531 567.390625 676.253906 C 561.394531 683.097656 556.546875 688.628906 550.949219 694.898438 M 315.894531 392.714844 C 314.664062 394.53125 311.367188 395.328125 312.890625 398.578125 C 319.949219 397.566406 344.035156 372.222656 344.175781 364.582031 C 334.597656 374.136719 325.613281 383.097656 315.894531 392.714844 M 505.292969 595.808594 C 500.605469 601.6875 492.984375 605.371094 491.269531 612.242188 C 503.59375 599.886719 516.460938 586.988281 529.328125 574.085938 C 520.726562 579.980469 513.589844 587.777344 505.292969 595.808594 M 154.757812 574.863281 C 159.640625 568.28125 168.75 564.796875 169.269531 554.953125 C 158.457031 565.394531 146.683594 574.910156 138.589844 587.851562 C 145.113281 585.273438 149.234375 580.050781 154.757812 574.863281 M 646.082031 751.410156 C 655.835938 741.65625 655.835938 741.65625 657.140625 738.765625 C 646.644531 748.980469 636.152344 759.199219 624.414062 770.625 C 633.628906 765.460938 638.761719 757.917969 646.082031 751.410156 M 567.503906 539.304688 C 568.597656 537.398438 569.59375 535.492188 569.65625 535.488281 C 558.765625 545.652344 547.878906 555.820312 536.988281 565.988281 C 537.484375 566.535156 537.976562 567.085938 538.472656 567.632812 C 548.578125 559.1875 557.359375 549.21875 567.503906 539.304688 M 134.972656 434.515625 C 145.273438 424.253906 155.601562 414.023438 165.851562 403.710938 C 167.730469 401.824219 170.367188 400 168.332031 395.253906 C 155.777344 407.945312 143.773438 419.894531 132.019531 432.085938 C 129.421875 434.78125 130.539062 436.207031 134.972656 434.515625 M 475.679688 152.0625 C 480.859375 146.683594 486.039062 141.300781 491.214844 135.917969 C 490.320312 135.113281 489.421875 134.3125 488.527344 133.507812 C 476.179688 145.234375 463.945312 157.070312 453.292969 170.582031 C 462.585938 167.105469 467.933594 158.949219 475.679688 152.0625 M 190.695312 227.835938 C 187.476562 232.257812 181.1875 234.601562 180.894531 239.3125 C 192.402344 228.007812 204.660156 215.964844 216.921875 203.917969 C 207.105469 210.109375 199.835938 219.246094 190.695312 227.835938 M 152.761719 271.542969 C 168.652344 255.636719 168.652344 255.636719 168.628906 251.210938 C 169.316406 251.910156 170.007812 252.605469 170.695312 253.304688 C 158.597656 265.257812 146.5 277.214844 135.046875 288.53125 C 140.929688 284.386719 146.019531 277.800781 152.761719 271.542969 M 236.875 631.726562 C 233.753906 635.324219 229.535156 638.035156 227.183594 642.839844 C 234.898438 642.433594 256.738281 619.949219 256.109375 610.671875 C 249.109375 618.363281 243.363281 624.675781 236.875 631.726562 M 253.644531 315.914062 C 255.714844 313.6875 258.09375 311.566406 257.5 309.992188 C 246.292969 320.648438 234.746094 331.625 223.203125 342.601562 C 223.628906 343.070312 224.054688 343.535156 224.476562 344.003906 C 234.820312 335.882812 243.34375 325.679688 253.644531 315.914062 M 184.6875 379.167969 C 182.773438 381.367188 179.773438 383.136719 180.277344 384.535156 C 191.367188 373.460938 202.90625 361.941406 214.449219 350.417969 C 214.328125 350.273438 214.207031 350.128906 214.085938 349.984375 C 204.523438 359.460938 194.960938 368.933594 184.6875 379.167969 M 99.40625 179.414062 C 108.988281 169.304688 119.886719 160.386719 129.554688 147.804688 C 120.34375 150.636719 94.144531 178.101562 94.035156 184.046875 C 95.777344 182.582031 97.242188 181.347656 99.40625 179.414062 M 255.753906 468.074219 C 247.128906 477.324219 238.503906 486.574219 229.851562 495.855469 C 231.734375 497.8125 233.480469 496.125 235.050781 494.578125 C 241.714844 487.996094 248.351562 481.382812 254.910156 474.695312 C 256.648438 472.925781 258.1875 470.878906 255.753906 468.074219 M 145.203125 433.117188 C 143.640625 435.648438 139.707031 436.5 139.710938 440.402344 C 146.820312 440.054688 169.230469 416.632812 168.664062 410.082031 C 160.101562 416.730469 153.550781 425.125 145.203125 433.117188 M 457.144531 149.917969 C 454.867188 152.601562 451.179688 154.613281 452.972656 160.1875 C 463.0625 150.082031 473.398438 141.054688 481.804688 130.238281 C 481.03125 129.445312 480.253906 128.65625 479.480469 127.863281 C 472.28125 134.964844 465.085938 142.066406 457.144531 149.917969 M 119.269531 299.144531 C 114.59375 303.855469 109.707031 308.375 105.308594 313.328125 C 101.039062 318.136719 94.613281 321.460938 93.761719 328.855469 C 105.320312 318.726562 116.699219 308.511719 127.3125 295.902344 C 122.601562 294.804688 121.535156 297.121094 119.269531 299.144531 M 482.898438 159.320312 C 488.667969 153.5 494.4375 147.675781 501.289062 140.761719 C 494.285156 140.960938 480.410156 153.25 470.253906 166.421875 C 475.640625 166.691406 479.011719 163.597656 482.898438 159.320312 M 601.800781 629.949219 C 594.203125 638.863281 583.902344 645.519531 578.132812 655.957031 C 578.75 656.503906 579.367188 657.046875 579.984375 657.589844 C 590.585938 646.945312 601.1875 636.296875 611.789062 625.652344 C 606.390625 623.945312 604.980469 627.355469 601.800781 629.949219 M 506.890625 440.066406 C 512.519531 434.28125 518.148438 428.496094 523.773438 422.710938 C 515.277344 423.394531 491.769531 448.394531 492.34375 455.222656 C 497.347656 449.992188 501.746094 445.394531 506.890625 440.066406 M 278.839844 566.800781 C 284.507812 561.023438 290.175781 555.246094 295.84375 549.46875 C 287.078125 549.378906 268.3125 569.5 269.757812 577.503906 C 273.078125 573.535156 275.589844 570.539062 278.839844 566.800781 M 232.792969 345.101562 C 231.824219 346.308594 230.894531 347.664062 232.59375 348.847656 C 234.117188 349.902344 235.410156 348.789062 236.457031 347.742188 C 242.894531 341.296875 249.355469 334.871094 255.671875 328.304688 C 257.160156 326.753906 258.257812 324.699219 255.980469 322.125 C 248.414062 329.621094 240.9375 337.023438 232.792969 345.101562 M 102.988281 460.765625 C 93.980469 470.042969 93.980469 470.042969 94.152344 475.15625 C 104.566406 464.640625 115.363281 455.378906 124.980469 443.394531 C 122.671875 443.238281 121.769531 442.878906 121.320312 443.1875 C 114.542969 447.835938 109.773438 454.59375 102.988281 460.765625 M 292.253906 262.617188 C 294.445312 259.667969 298.488281 258.035156 299.128906 253.53125 C 291.957031 255.082031 269.070312 279.003906 269.238281 286.683594 C 277.378906 278.160156 284.449219 270.757812 292.253906 262.617188 M 208.835938 199.742188 C 206.859375 195.949219 205.113281 198.96875 203.863281 200.183594 C 196.773438 207.058594 189.820312 214.074219 182.894531 221.117188 C 181.4375 222.601562 179.539062 224.230469 181.941406 227.175781 C 191.265625 218.621094 200.46875 210.175781 208.835938 199.742188 M 565.957031 700.980469 C 568.285156 697.453125 568.285156 697.453125 569.46875 695.75 C 560.996094 703.339844 552.527344 710.933594 544.058594 718.527344 C 544.496094 719.027344 544.9375 719.527344 545.378906 720.027344 C 552.996094 715.148438 558.527344 707.714844 565.957031 700.980469 M 504.6875 581.84375 C 492.328125 594.269531 492.328125 594.269531 492.402344 599.097656 C 491.667969 598.355469 490.933594 597.613281 490.199219 596.871094 C 500.214844 587.265625 510.234375 577.664062 520.652344 567.671875 C 514.007812 570.753906 510.492188 576.886719 504.6875 581.84375 M 111.417969 147.078125 C 105.335938 154.355469 96.351562 159.394531 93.480469 169.160156 C 98.652344 165.484375 103.355469 161.472656 107.578125 157.007812 C 111.480469 152.878906 116.945312 149.765625 118.808594 143.410156 C 114.914062 142.707031 113.835938 145.066406 111.417969 147.078125 M 279.582031 420.597656 C 285.761719 414.410156 291.9375 408.226562 298.113281 402.039062 C 289.800781 402.519531 269.226562 424.070312 268.957031 429.832031 C 269.535156 430.429688 270.117188 431.027344 270.695312 431.625 C 273.414062 428.195312 276.128906 424.769531 279.582031 420.597656 M 330.378906 392.707031 C 327.480469 396.371094 322.808594 398.640625 321.195312 403.769531 C 328.582031 403.300781 344.019531 387.246094 342.523438 378.886719 C 338.722656 383.25 334.921875 387.609375 330.378906 392.707031 M 344.613281 527.257812 C 342.144531 524.105469 341.03125 527.535156 339.988281 528.53125 C 333.785156 534.460938 327.777344 540.597656 321.765625 546.726562 C 320.671875 547.84375 318.785156 548.886719 321.21875 552.28125 C 330.097656 545.167969 338.226562 537.601562 344.613281 527.257812 M 546.261719 569.023438 C 544.625 573.019531 547.34375 573.351562 549.308594 571.652344 C 556.203125 565.699219 563.113281 559.660156 568.394531 552.125 C 569.046875 551.195312 569.484375 549.300781 567.511719 548.226562 C 566.4375 549.183594 565.308594 550.109375 564.277344 551.128906 C 558.472656 556.867188 552.691406 562.625 546.261719 569.023438 M 144.011719 289.027344 C 143.082031 290.4375 140.210938 291.171875 142.339844 293.683594 C 149.46875 291.539062 168.398438 271.667969 168.867188 264.457031 C 160.285156 272.957031 152.496094 280.664062 144.011719 289.027344 M 344.714844 672.511719 C 344.75 668.839844 343.296875 670.316406 341.917969 671.714844 C 334.160156 679.570312 326.398438 687.421875 318.671875 695.304688 C 317.804688 696.191406 317.160156 697.273438 319.3125 699.710938 C 328.15625 691.304688 337.566406 683.59375 344.714844 672.511719 M 161.765625 575.988281 C 156.601562 581.394531 151.4375 586.796875 146.269531 592.203125 C 156.195312 590.328125 169.289062 576.003906 169.128906 569.027344 C 166.675781 571.332031 164.585938 573.296875 161.765625 575.988281 M 169.8125 426.632812 C 170.039062 423.125 168.492188 424.128906 167 425.601562 C 161.207031 431.3125 155.445312 437.058594 149.726562 442.84375 C 148.652344 443.933594 147.855469 445.269531 150.769531 447.617188 C 157.207031 441.257812 164.800781 435.816406 169.8125 426.632812 M 203.828125 351.109375 C 204.894531 349.414062 207.777344 348.625 206.570312 345.742188 C 199.214844 347.613281 181.320312 366.648438 181.898438 374.050781 C 189.558594 366.023438 196.339844 358.917969 203.828125 351.109375 M 491.238281 437.59375 C 491.636719 438.113281 492.386719 439.09375 492.394531 439.085938 C 500.921875 432.699219 507.570312 424.535156 514.972656 417.078125 C 514.140625 416.21875 513.3125 415.363281 512.480469 414.503906 C 504.980469 421.441406 497.132812 427.996094 491.238281 437.59375 M 110.558594 299.136719 C 112.960938 296.488281 116.257812 294.550781 117.757812 290.761719 C 111.011719 290.824219 94.179688 307.738281 94.011719 314.101562 C 94.746094 314.847656 95.480469 315.589844 96.210938 316.332031 C 100.742188 310.847656 105.273438 305.363281 110.558594 299.136719 M 457.253906 135.1875 C 454.867188 137.925781 451.136719 140.097656 453.140625 145.921875 C 459.660156 138.015625 468.136719 133.039062 471.496094 123.691406 C 465.425781 125.507812 462.277344 130.648438 457.253906 135.1875 M 189.867188 510.480469 C 195.257812 505.042969 200.652344 499.605469 207.144531 493.058594 C 198.636719 493.679688 181.757812 510.957031 181.207031 518.753906 C 184.289062 515.820312 186.710938 513.515625 189.867188 510.480469 M 183.976562 211.453125 C 189.296875 205.4375 196.140625 200.648438 201.488281 191.964844 C 194.742188 194.148438 181.546875 206.117188 180.871094 209.644531 C 180.632812 210.890625 179.195312 214.734375 183.976562 211.453125 M 285.683594 254.621094 C 287.308594 252.550781 290.667969 251.472656 289.941406 247.734375 C 282.097656 249.898438 268.484375 264.988281 269.296875 272.410156 C 275.042969 266.144531 279.992188 260.75 285.683594 254.621094 M 596.59375 620.613281 C 590.792969 627.757812 581.949219 632.460938 578.921875 640.304688 C 585.8125 633.445312 593.417969 625.867188 601.007812 618.3125 C 599.800781 617.527344 598.566406 618.804688 596.59375 620.613281 M 166.726562 286.890625 C 168.785156 284.816406 170.5625 282.671875 169.707031 280.9375 C 163.726562 286.953125 157.675781 293.039062 151.480469 299.265625 C 158.148438 297.898438 161.121094 291.429688 166.726562 286.890625 M 241.46875 496.367188 C 240.578125 498.066406 237.351562 498.699219 238.976562 501.617188 C 246.597656 500.039062 256.96875 488.574219 255.714844 480.726562 C 250.644531 486.328125 246.40625 491.011719 241.46875 496.367188 M 650.886719 760.664062 C 655.675781 755.742188 655.675781 755.742188 657.046875 753.507812 C 649.660156 760.339844 642.269531 767.175781 633.511719 775.273438 C 641.519531 771.757812 645.140625 765.703125 650.886719 760.664062 M 108.234375 440.941406 C 93.945312 455.359375 93.945312 455.359375 92.394531 457.785156 C 99.46875 450.796875 106.546875 443.8125 113.300781 437.144531 C 111.542969 436.371094 110.625 439.113281 108.234375 440.941406 M 496.683594 153.738281 C 493.9375 156.015625 491.195312 158.289062 488.449219 160.5625 C 488.980469 161.089844 489.511719 161.617188 490.042969 162.140625 C 499.25 160.40625 503.632812 153.125 508.269531 146.042969 C 502.839844 145.753906 500.808594 150.40625 496.683594 153.738281 M 491.667969 581.289062 C 491.449219 582.386719 490.675781 583.605469 492.789062 584.566406 C 499.183594 577.886719 506.605469 571.949219 511.160156 563.339844 C 503.632812 567.839844 497.570312 573.847656 491.667969 581.289062 M 244.808594 354.050781 C 248.875 348.679688 256.507812 345.75 255.957031 337.003906 C 250.613281 341.007812 246.125 345.761719 241.871094 350.71875 C 239.484375 353.496094 240.207031 355.046875 244.808594 354.050781 M 248.566406 640.4375 C 251.386719 636.546875 257.101562 634.574219 256.988281 630.605469 C 251.21875 636.359375 244.617188 642.945312 238.582031 648.964844 C 242.429688 648.601562 244.332031 643.757812 248.566406 640.4375 M 268.988281 411.285156 C 268.246094 412.816406 267.523438 414.347656 268.761719 416 C 281.820312 405.351562 286.777344 399.554688 286.789062 393.199219 C 280.488281 399.527344 275.03125 405.011719 268.988281 411.285156 M 336.09375 698.273438 C 344.3125 689.835938 344.3125 689.835938 345.738281 687.191406 C 339.714844 692.90625 333.695312 698.625 327.875 704.148438 C 331.261719 704.648438 332.832031 700.972656 336.09375 698.273438 M 97.808594 152.339844 C 101.910156 147.800781 107.222656 144.230469 111.011719 137.492188 C 101.640625 140.195312 93.597656 149.367188 94.238281 155.464844 C 95.292969 154.546875 96.203125 153.753906 97.808594 152.339844 M 195.578125 344.59375 C 196.359375 343.082031 199.171875 342.234375 196.414062 338.757812 C 190.410156 344.679688 182.730469 348.742188 181.824219 358.867188 C 186.195312 354.339844 190.5625 349.8125 195.578125 344.59375 M 105.339844 284.527344 C 100.699219 289.257812 93.753906 292.34375 94.015625 300.726562 C 98.804688 297.097656 102.808594 292.796875 106.730469 288.421875 C 107.996094 287.011719 108.808594 285.445312 105.339844 284.527344 M 271.128906 559.652344 C 276.304688 554.375 282.207031 549.691406 285.472656 542.773438 C 278.203125 545.898438 273.398438 551.589844 268.691406 557.316406 C 267.832031 558.355469 267.203125 560.875 271.128906 559.652344 M 555.136719 574.804688 C 554.101562 576.453125 554.492188 577.890625 556.410156 577.960938 C 560.8125 578.121094 568.496094 567.550781 567.148438 561.550781 C 562.988281 566.148438 559.367188 570.152344 555.136719 574.804688 M 503.609375 410.121094 C 497.277344 413.320312 492.226562 417.515625 491.792969 425.339844 C 496.042969 420.375 503.6875 418.316406 503.609375 410.121094 M 342.066406 546.835938 C 343.964844 544.792969 345.558594 542.664062 345.925781 541.457031 C 340.339844 546.539062 334.753906 551.625 328.667969 557.15625 C 335.066406 556.171875 337.367188 550.71875 342.066406 546.835938 M 557.496094 723.246094 C 561.285156 718.59375 568.058594 715.996094 568.996094 706.699219 C 562.191406 713.097656 556.734375 717.730469 552.671875 723.601562 C 554.347656 725.679688 555.554688 724.648438 557.496094 723.246094 M 186.3125 499.304688 C 189.292969 495.28125 194.917969 493.109375 194.765625 486.820312 C 189.085938 491.488281 181.8125 494.792969 180.425781 503.007812 C 181.191406 503.738281 181.960938 504.472656 182.730469 505.207031 C 183.691406 503.46875 184.652344 501.726562 186.3125 499.304688 M 278.660156 242.308594 C 274.140625 245.945312 268.605469 248.898438 267.902344 257.742188 C 272.90625 252.8125 276.398438 249.464844 279.773438 246 C 280.914062 244.824219 282.5 243.308594 278.660156 242.308594 M 578.742188 625.246094 C 578.753906 626.433594 579.078125 628.46875 580.375 627.363281 C 585.078125 623.355469 589.980469 619.417969 592.65625 613.378906 C 586.0625 614.453125 582.945312 619.964844 578.742188 625.246094 M 334.457031 409.210938 C 338.152344 404.957031 343.8125 401.984375 343.574219 394.96875 C 338.910156 398.105469 335.25 402.058594 331.695312 406.109375 C 329.121094 409.035156 330.425781 409.949219 334.457031 409.210938 M 462.34375 121.726562 C 464.273438 119.140625 463.59375 116.558594 460.542969 118.234375 C 456.417969 120.503906 451.527344 123.492188 454.449219 131.4375 C 456.882812 128.433594 459.320312 125.433594 462.34375 121.726562 M 653.707031 772.515625 C 655.15625 770.675781 657.207031 768.988281 655.171875 765.84375 C 650.457031 769.910156 645.632812 773.535156 642.046875 780.222656 C 648.285156 779.578125 650.046875 775.5625 653.707031 772.515625 M 162.4375 590.050781 C 160.367188 592.785156 156.882812 594.546875 155.707031 600.34375 C 162.75 595.972656 167.886719 592.515625 169.832031 585.019531 C 166.050781 585.378906 164.96875 587.878906 162.4375 590.050781 M 94.546875 440.160156 C 93.621094 441.570312 92.429688 442.933594 93.753906 444.742188 C 99.953125 441.121094 103.664062 437.316406 105.9375 431.996094 C 100.148438 431.660156 98.722656 437.140625 94.546875 440.160156 M 169.757812 439.78125 C 163.433594 441.101562 161.101562 446.4375 158.222656 451.25 C 164.167969 449.925781 168.3125 446.679688 169.757812 439.78125 M 495.648438 567.769531 C 497.671875 564.402344 502.953125 562.921875 502.050781 557.339844 C 494.199219 561.222656 492.261719 563.890625 492.621094 570.269531 C 493.511719 569.558594 494.246094 568.976562 495.648438 567.769531 M 186.949219 187.75 C 184.363281 190.824219 179.617188 192.773438 181.066406 198.65625 C 185.222656 196.535156 187.695312 193.445312 190.074219 190.449219 C 192.277344 187.671875 191.25 186.304688 186.949219 187.75 M 160.402344 304.785156 C 166.769531 303.839844 169.15625 299.789062 169.300781 293.96875 C 165.574219 296.898438 160.957031 298.996094 160.402344 304.785156 M 343.328125 699.664062 C 340.222656 702.34375 336.355469 704.457031 335.59375 710.84375 C 341.351562 708.175781 345.523438 706.253906 343.328125 699.664062 M 255.734375 647.761719 C 256.664062 646.316406 257.742188 644.894531 256.121094 642.703125 C 252.082031 645.789062 247.757812 648.429688 246.222656 654.496094 C 247.820312 654.214844 248.695312 654.324219 249.148438 653.9375 C 251.199219 652.203125 253.132812 650.324219 255.734375 647.761719 M 274.605469 396.269531 C 276.042969 394.316406 278.980469 393.183594 278.371094 389.847656 C 271.277344 392.085938 268.488281 395.574219 269.300781 403.550781 C 271.414062 400.535156 272.664062 398.753906 274.605469 396.269531 M 183.371094 342.773438 C 185.367188 340.300781 188.511719 338.59375 189.226562 334.332031 C 184.644531 334.113281 182.574219 336.761719 181.042969 339.671875 C 180.457031 340.785156 178.886719 343.695312 183.371094 342.773438 M 275.199219 541.304688 C 276.402344 539.832031 278.261719 538.394531 275.125 536.453125 C 271.570312 538.9375 267.648438 541.101562 268.386719 547.625 C 270.96875 545.230469 272.742188 543.585938 275.199219 541.304688 M 248.277344 506.152344 C 254.78125 506.949219 255.921875 502.597656 257.445312 496.550781 C 252.738281 499.1875 250.128906 501.910156 248.277344 506.152344 M 255.710938 352.082031 C 252.921875 353.820312 250.300781 355.6875 249.617188 360.019531 C 254.683594 359.125 258.066406 357.835938 255.710938 352.082031 M 338.410156 558.9375 C 336.566406 562.636719 338.0625 563.699219 341.289062 561.941406 C 343.929688 560.507812 345.539062 557.9375 344.066406 553.945312 C 342.238281 555.558594 340.648438 556.964844 338.410156 558.9375 M 97.636719 137.582031 C 98.554688 135.863281 101.628906 135.070312 99.800781 131.761719 C 95.917969 133.453125 93.238281 135.628906 93.019531 141.832031 C 95.261719 139.820312 96.144531 139.023438 97.636719 137.582031 M 185.078125 486.191406 C 185.949219 485.109375 187.433594 484.140625 186.546875 482.527344 C 185.867188 481.292969 184.585938 481.316406 183.472656 482.117188 C 180.988281 483.90625 179.859375 486.082031 181.398438 489.671875 C 182.738281 488.402344 183.582031 487.601562 185.078125 486.191406 Z M 185.078125 486.191406 " fill-opacity="1" fill-rule="nonzero"/></svg>