<?xml version="1.0" encoding="UTF-8"?>
<svg version="1.1" viewBox="0 0 2048 680" width="316" height="105" xmlns="http://www.w3.org/2000/svg">
<path transform="translate(133,107)" d="m0 0h23l17 3 15 5 15 8 12 8 4 4 4-2 6-5 13-8 15-7 19-5 8-1h23l18 3 17 6 16 9 12 9 13 13 10 14 8 16 5 15 2 14 1 65v79l-3 7-9 4-8 1-42 1-5-1-2-6-5-2-1-5-2-119 1-5-5-15-5-5-8-7-11-4h-16l-11 4-8 6-7 9-4 9-1 10v119l-7 9-6 2h-52l-5-5-4-8-1-65v-49l-1-15-7-13-7-6-12-6-4-1h-16l-10 4-9 7-5 6-3 12-1 128-7 5-3 5-2 1h-50l-10-3-3-5-1-34v-107l2-20 4-12 12-24 9-11 6-7 8-7 12-9 21-10 14-4z" fill="#0DE473"/>
<path transform="translate(954,79)" d="m0 0 8 1 16 12 12 11 4 5-1 7-14 17-11 14-9 10-1 1 1 8 6 14 6 19 5 23 1 8v24l-4 20-6 16-9 17-8 11-12 15-4 4 6 7 9 9 7 11 8 16 5 17 1 6v29l-4 18-5 13-6 12-10 14-12 12-10 7-19 10-19 6-15 3-13 1h-10l-14-2-21-6-19-9-11-8-12-11-8-10-9-15-8-21-2-10v-26l3-14 5-9 3-3h10l39 6 7 3 1 2 1 31 3 12 5 10 9 8 11 5 10 2h12l13-4 11-6 9-9 7-14 2-8 1-14-2-12-6-15-7-9-5-5-8-6-4-1-31-1-16-2-19-5-12-5-11-6-10-8-12-12-10-15-8-16-6-16-4-18-1-8v-24l3-18 7-21 8-16 10-14 11-12 13-10 15-9 15-6 16-4 9-1h22l22 3 26 7 4-1 9-10 11-12 9-11 9-8zm-108 98-12 3-12 7-10 10-8 14-3 11v28l3 10 6 11 9 10 8 6 11 5 9 2h19l15-5 13-9 8-10 5-11 3-15v-23l-5-15-7-11-9-8-8-5-11-4-5-1z" fill="#08343C"/>
<path transform="translate(564,112)" d="m0 0h25l15 2 15 4 16 7 13 7 14 10 10 10 9 12 8 17 5 16 3 16 1 14v113l-3 7-3 3-3 1h-45l-3-1-3-8-2-19-6 4-12 12-14 9-11 5-19 5-10 1h-11l-21-3-15-5-15-8-10-8-12-12-9-14-7-15-6-18-4-22-1-11v-11l2-18 3-14 5-14 8-16 9-13 9-10 10-9 10-7 12-7 15-6 14-4zm1 65-13 4-12 8-9 9-7 12-4 13-1 6v13l2 13 4 12 6 10 5 6 11 7 11 4 5 1h22l15-5 12-8 8-8 7-11 4-11 1-5v-24l-4-13-6-11-7-8-10-7-8-4-10-3z" fill="#08343D"/>
<path transform="translate(1381,113)" d="m0 0h37l17 3 16 5 17 8 10 7 11 9 7 7 11 15 9 19 5 16 2 11v22l-3 7-4 3-3 1-164 1 3 12 8 16 7 8 10 7 14 5h24l12-3 22-10 7 1 16 8 18 12 5 4 2 6-6 9-9 9-16 11-16 8-15 5-22 4h-24l-25-5-18-6-14-7-11-8-12-11-9-12-9-16-5-15-4-21-1-9v-26l3-20 5-19 8-16 7-11 12-13 10-9 14-9 13-6 16-5zm8 64-12 4-10 7-7 8-6 10 4 2h92l-2-5-7-9-7-7-8-5-15-5z" fill="#08343D"/>
<path transform="translate(1857,113)" d="m0 0h36l19 3 16 5 16 8 14 10 9 8 11 14 9 15 6 16 3 14 3 22v18l-5 27-6 17-9 17-8 11-10 11-13 10-12 7-21 8-19 4-10 1h-16l-22-3-17-5-17-7-14-9-14-12-10-12-9-16-5-12-4-14-3-17v-31l3-19 6-19 8-16 8-12 17-17 13-9 16-8 18-6zm10 64-13 4-12 7-10 10-7 14-3 12-1 14 2 16 5 12 4 6 9 10 11 7 11 4 6 1h17l13-4 12-7 8-7 7-11 5-13 1-6v-21l-3-12-6-12-8-10-10-7-11-5-9-2z" fill="#08343D"/>
<path transform="translate(1107,113)" d="m0 0h37l19 3 15 5 17 9 14 11 8 8 10 14 10 21 4 16 1 12v129l-3 7-6 3h-50l-5-3-3-6-1-127-3-11-5-9-6-7-12-7-10-3h-22l-12 4-9 7-7 8-5 11-1 5-1 18-1 112-5 6-4 2h-51l-4-2-2-5-1-7v-106l1-20 4-20 6-16 8-15 10-13 10-10 11-8 17-9 16-5z" fill="#09353D"/>
<path transform="translate(1619,22)" d="m0 0h46l9 3 2 4v91h56l9 1 4 6 1 7v41l-2 6-5 3-19 1h-43l-1 159-2 4-10 3h-49l-4-2-2-10v-155l-28 1h-31l-5-2-5-8-1-3 1-42 3-9 8-1h57l1-87 4-8z" fill="#09353E"/>
<path transform="translate(1221,420)" d="m0 0h9l9 2 12 6 9 8 6 3 7-7 11-7 11-4 13-1 12 2 10 4 9 7 9 10 7 14 2 9 1 17v79l-3 5-2 1h-12l-5-3-2-3-1-23-1-68-5-13-6-7-8-4h-15l-8 4-5 4-5 8-2 7-2 95-4 2h-16l-4-2-1-4-1-89-2-8-6-9-9-7-4-1h-13l-10 5-5 4-5 10-2 11-1 86-4 4-3 1h-12l-4-4-2-4v-35l1-95 7-8 9 1 8 5 5-1 16-6z" fill="#17E579"/>
<path transform="translate(1450,421)" d="m0 0h22l15 4 11 6 11 9 10 13 7 15 3 12 1 11v10l-2 16-5 14-7 11-11 12-13 9-13 5-17 2-15-1-11-3-20-10 1 2v38l-1 26-4 3-5 1h-11l-4-4-1-4v-133l3-16 8-16 10-13 10-8 15-8zm4 24-9 2-12 7-8 9-6 12-2 8-1 9v10l2 12 6 12 8 10 11 7 13 3h10l13-4 10-7 7-7 6-12 2-8 1-18-3-16-6-11-6-7-11-7-7-3-6-1z" fill="#1CE47B"/>
<path transform="translate(1073,421)" d="m0 0h19l14 4 11 6 11 9 7 10 7 15 4 18v12l-3 7-3 2-6 1-40 1h-50l-1 3 5 13 10 13 9 6 9 3 12 1 13-3 17-9 9-1 5 3 3 4v7l-3 5-8 7-16 8-13 3h-23l-14-4-11-6-12-11-9-14-5-12-3-13-1-18 2-17 4-12 9-16 9-10 10-7 10-5zm0 25-12 6-8 8-9 16-1 4 5 2h70l3-1-1-7-7-12-9-10-12-6z" fill="#15E477"/>
<path transform="translate(1664,421)" d="m0 0h21l11 3 12 6 10 9 7 8 8 16 3 14v22l-4 5-3 1h-93l5 18 7 9 9 8 11 4h18l12-4 12-8h8l11 7 1 4-4 6-7 7-14 8-12 4-5 1h-22l-16-4-11-6-10-9-8-11-6-12-4-16-1-18 1-16 5-18 9-14 9-10 14-9 11-4zm8 24-11 2-9 6-7 7-5 8-2 7v5l4 2h65l7-1-3-9-8-13-7-7-10-5-13-2z" fill="#15E478"/>
<path transform="translate(1818,420)" d="m0 0 14 1 15 5 11 6 12 11 7 9 8 16 2 10 1 22-2 18-3 10-10 16-9 10-10 7-11 5-12 3-17 1-19-3-16-8-12-11-9-13-6-14-2-10v-26l3-16 5-13 9-13 11-10 14-8 15-4zm-6 25-13 4-10 7-6 7-6 12-3 13v17l3 12 5 10 11 11 11 6 12 2 13-1 12-5 9-7 7-10 3-7 2-11v-21l-3-12-6-10-9-9-9-5-5-2-6-1z" fill="#10E375"/>
<path transform="translate(1946,420)" d="m0 0 15 1 15 5 12 8 11 14 2 5-1 4-10 7-7 1-8-7-7-6-7-4-9-2h-10l-9 3-6 4-2 3v13l4 5 11 5 28 6 14 6 9 7 8 10 3 7 1 6v13l-3 9-7 9-5 5-9 6-12 5-21 2-18-2-14-5-11-8-6-7-3-9 5-9 4-3 5 1 10 6 11 7 10 3 13 1 11-2 8-4 5-5 1-4v-7l-2-6-8-5-16-5-18-4-13-5-11-8-7-9-3-7v-21l4-11 8-10 11-7 9-3z" fill="#19E479"/>
<path transform="translate(1564,364)" d="m0 0 9 1 3 2 1 5 1 159 2 8 7 3 13 3 5 6v9l-4 6-2 2h-18l-9-4-9-6-6-10-4-12-1-10v-157l8-4z" fill="#1AE57B"/>
<path transform="translate(39,177)" d="m0 0 1 3-4 12-1 6v160l-3-4-1-34v-107l2-20 4-12z" fill="#FEFEFE"/>
<path transform="translate(405,192)" d="m0 0h1l2 14 1 65v79l-3 7-6 3-3-1 5-2 2-4 2-3v-97z" fill="#FEFEFE"/>
<path transform="translate(131,193)" d="m0 0 4 1-10 4-9 7-5 6-3 12-1 128-4 3-2-1 3-6 1-16v-85l1-28 3-9 7-8 12-7z" fill="#FEFEFE"/>
<path transform="translate(1818,420)" d="m0 0 14 1 15 5 11 6 12 11 7 9 8 16 2 10 1 22-2 18h-1v-36l-3-14-8-16-11-13-13-9-12-5-8-2h-21l-15 4-15 8-12 11v-3l11-10 14-8 15-4z" fill="#FEFEFE"/>
<path transform="translate(1025,458)" d="m0 0 1 3-4 10-2 10v25l3 14 7 16 7 10 9 9 14 8 11 4-4 1-11-4-10-6-10-9-7-10-7-14-4-16-1-18 2-17 4-12z" fill="#FEFEFE"/>
<path transform="translate(1838,449)" d="m0 0 5 2 6 4 7 7 6 12 3 16v13l-4 16-6 9-1-2 5-10 2-11v-21l-3-12-6-10-8-8-6-4z" fill="#FEFEFE"/>
<path transform="translate(1750,485)" d="m0 0h1l1 22 5 19 6 12 8 10 9 8 10 6 13 5-4 1-11-4-10-6-11-10-9-13-6-14-2-10z" fill="#FEFEFE"/>
<path transform="translate(1974,515)" d="m0 0 4 2 2 4v10l-3 6-9 7-16 4-15-1-11-4-13-10 2-1 14 9 10 3 13 1 11-2 8-4 5-5 1-4v-7l-2-6z" fill="#FEFEFE"/>
<path transform="translate(1278,463)" d="m0 0 1 3-1 4-2 95-4 1 2-11 1-80z" fill="#FEFEFE"/>
<path transform="translate(328,112)" d="m0 0 6 1 16 7 15 10 10 9 8 8 10 14 8 16-1 3-10-19-10-14-13-13-15-10-16-8-8-3z" fill="#FEFEFE"/>
<path transform="translate(1783,528)" d="m0 0 7 6 8 6 10 4 15 1 12-3 6-3 2 1-8 5-11 3h-13l-10-3-11-7-7-8z" fill="#FEFEFE"/>
<path transform="translate(256,277)" d="m0 0h1v74l-7 9-1 1h-5l5-4 5-7 1-3z" fill="#FEFEFE"/>
<path transform="translate(1433,537)" d="m0 0 5 2 8 4 10 2h10l13-4 6-4 2 1-9 6-15 4h-10l-10-3-9-6z" fill="#FEFEFE"/>
<path transform="translate(1450,421)" d="m0 0h22v1l-20 1-15 4-14 7-12 10v-3l8-7 14-8 8-3z" fill="#FEFEFE"/>
<path transform="translate(1428,458)" d="m0 0v3l-6 9-4 13-1 9v18h-1l-1-5v-22l4-13 5-8z" fill="#FEFEFE"/>
<path transform="translate(1946,420)" d="m0 0 15 1 15 5 12 8 6 7-1 2-8-8-10-6-8-4-15-3-6-1z" fill="#FEFEFE"/>
<path transform="translate(92,119)" d="m0 0 2 1-14 9-10 8-14 14v-3l8-9 8-7 12-9z" fill="#FEFEFE"/>
<path transform="translate(287,192)" d="m0 0h14v1l-13 1-11 4-8 6-7 9-3 6-1-3 6-10 4-5 9-6z" fill="#FEFEFE"/>
<path transform="translate(1644,529)" d="m0 0 7 6 8 6 9 3 17 1v1l-6 1h-11l-8-3-9-6-7-7z" fill="#FEFEFE"/>
<path transform="translate(1897,546)" d="m0 0 5 5 8 6 16 8 6 2-4 1-14-5-11-8-6-7z" fill="#FEFEFE"/>
<path transform="translate(1115,431)" d="m0 0 5 2 8 7 7 10 5 10-1 3-9-16-11-12z" fill="#FEFEFE"/>
<path transform="translate(1625,543)" d="m0 0 5 5 9 8 12 7 5 2-4 1-13-7-10-9-4-5z" fill="#FEFEFE"/>
<path transform="translate(1697,453)" d="m0 0 4 2 7 8 6 11v5l-2-2-6-12-6-8z" fill="#FEFEFE"/>
<path transform="translate(1873,541)" d="m0 0v3l-9 10-10 7-4 1 4-4 9-7 6-5z" fill="#FEFEFE"/>
<path transform="translate(1053,428)" d="m0 0 2 1-10 7-7 6-1 2h-2l-2 4-3 3 2-5 9-10 10-7z" fill="#FEFEFE"/>
<path transform="translate(1642,463)" d="m0 0v3l-3 9v5l6 2-4 1-6-2 1-7 5-10z" fill="#FEFEFE"/>
<path transform="translate(1928,423)" d="m0 0 3 1-16 8-6 5v-3l8-6 8-4z" fill="#FEFEFE"/>
<path transform="translate(204,125)" d="m0 0 5 2 8 6 3 4-5-1-7-7z" fill="#FEFEFE"/>
<path transform="translate(97,356)" d="m0 0h2l-1 4-3 2h-11v-1l10-3z" fill="#FEFEFE"/>
<path transform="translate(67,137)" d="m0 0 2 1-13 13v-3l8-9z" fill="#93F2C0"/>
<path transform="translate(1415,605)" d="m0 0h1v17l-4 3-3-1 5-5z" fill="#FEFEFE"/>
</svg>
